<svg id="Layer_1" data-name="Layer 1" xmlns="http://www.w3.org/2000/svg" viewBox="0 0 682.72 74.55"><defs><style>.cls-1,.cls-2{fill:#fff;}.cls-2{font-size:61.88px;font-family:Roboto-Medium, Roboto;}.cls-3{letter-spacing:-0.02em;}</style></defs><title>2</title><path class="cls-1" d="M921.54,632.69l-2.12-1.52a70.35,70.35,0,0,1-17.48-17.72c-.13-.18-.24-.36-.36-.53l-2.4-4.34,4.34-.62a26.31,26.31,0,0,0,21-36l-2.88-7,6.91,3.16c4.94,2.25,12.53,4.94,20.6,4.94h3.48l.17,3.47a59.57,59.57,0,0,1-3,19.28,68,68,0,0,1-8.59,17.7,70.55,70.55,0,0,1-17.48,17.73ZM909,613a64.73,64.73,0,0,0,12.53,12.31,64.45,64.45,0,0,0,14.63-15.21A62.08,62.08,0,0,0,944,593.93a58.71,58.71,0,0,0,2.75-15,54.92,54.92,0,0,1-14.83-3.06A32.32,32.32,0,0,1,909,613Z" transform="translate(-890.28 -564.2)"/><path class="cls-1" d="M902.56,614.17l-1.18-1.56a68,68,0,0,1-8-16.86,60,60,0,0,1-3.05-19.28l.17-3.47H894c13.4,0,25.52-7.49,25.64-7.57l1.95-1.23,2,1.24a53.29,53.29,0,0,0,5,2.62l1.09.49.45,1.1a32.33,32.33,0,0,1-25.79,44.29ZM896.33,579a59.23,59.23,0,0,0,2.76,15,62.22,62.22,0,0,0,6.28,13.73A26.31,26.31,0,0,0,924.91,573c-1.43-.69-2.57-1.3-3.36-1.74C918.09,573.22,908,578.32,896.33,579Z" transform="translate(-890.28 -564.2)"/><text class="cls-2" transform="translate(81.31 57.78)">J&amp;J Security B<tspan class="cls-3" x="403.69" y="0">r</tspan><tspan x="424.36" y="0">others</tspan></text></svg>