<svg id="Layer_1" data-name="Layer 1" xmlns="http://www.w3.org/2000/svg" viewBox="0 0 244.72 315.47"><defs><style>.cls-1,.cls-2,.cls-3{fill:#fff;}.cls-2{font-size:94.15px;font-family:Roboto-Bold, Roboto;font-weight:700;}.cls-3{font-size:25.01px;font-family:Roboto-Regular, Roboto;}.cls-4{letter-spacing:-0.01em;}.cls-5{letter-spacing:0.01em;}.cls-6{letter-spacing:-0.01em;}</style></defs><title>Logo - SVG (White)</title><path class="cls-1" d="M666.76,552.53,662,549.11a159,159,0,0,1-39.4-39.95c-.27-.4-.53-.8-.79-1.2l-5.43-9.78,9.78-1.38a59.28,59.28,0,0,0,47.29-81.2l-6.49-15.86,15.58,7.12C693.65,411.94,710.75,418,729,418h7.85l.37,7.81c0,.88.86,19-6.88,43.46A153,153,0,0,1,711,509.16a159,159,0,0,1-39.41,39.95Zm-28.23-44.46a146.73,146.73,0,0,0,28.23,27.73,144.61,144.61,0,0,0,33-34.27,139.72,139.72,0,0,0,17.63-36.36,133.18,133.18,0,0,0,6.21-33.75,124,124,0,0,1-33.43-6.9,72.85,72.85,0,0,1-51.61,83.55Z" transform="translate(-544.4 -398.17)"/><path class="cls-1" d="M624,510.79l-2.66-3.53a153.13,153.13,0,0,1-18.1-38c-7.72-24.36-6.92-42.68-6.89-43.44l.39-7.83h7.83c30.22,0,57.54-16.89,57.81-17.06l4.38-2.77,4.4,2.79a115.36,115.36,0,0,0,11.36,5.9L685,408l1,2.49a72.83,72.83,0,0,1-58.12,99.8Zm-14-79.37a132.75,132.75,0,0,0,6.21,33.75,139.19,139.19,0,0,0,14.15,30.94,59.27,59.27,0,0,0,44-78.1c-3.21-1.54-5.78-2.91-7.57-3.91C659,418.49,636.32,430,610,431.42Z" transform="translate(-544.4 -398.17)"/><text class="cls-2" transform="translate(38.88 263.72)">J&amp;J</text><text class="cls-3" transform="translate(0 308.69)">SECUR<tspan class="cls-4" x="76.93" y="0">I</tspan><tspan class="cls-5" x="83.38" y="0">T</tspan><tspan x="98.5" y="0">Y BR</tspan><tspan class="cls-6" x="150.67" y="0">O</tspan><tspan x="167.53" y="0">THERS</tspan></text></svg>